<mxfile host="app.diagrams.net" modified="2021-10-17T06:36:34.113Z" agent="5.0 (Macintosh; Intel Mac OS X 10_15_7) AppleWebKit/605.1.15 (KHTML, like Gecko) Version/14.1.2 Safari/605.1.15" etag="rbJm7gl4lPTq3VYlCj8O" version="15.5.4" type="github">
  <diagram id="4Na73BtqWFjSJd618zKf" name="Page-1">
    <mxGraphModel dx="1397" dy="1160" grid="1" gridSize="10" guides="1" tooltips="1" connect="1" arrows="1" fold="1" page="1" pageScale="1" pageWidth="1169" pageHeight="827" math="0" shadow="0">
      <root>
        <mxCell id="0" />
        <mxCell id="1" parent="0" />
        <mxCell id="iY4aOflEBfNsIICsKYVU-54" value="" style="rounded=0;whiteSpace=wrap;html=1;fontFamily=Times New Roman;dashed=1;strokeColor=#FFFFFF;fillColor=#d5e8d4;" vertex="1" parent="1">
          <mxGeometry x="590" y="380" width="480" height="400" as="geometry" />
        </mxCell>
        <mxCell id="iY4aOflEBfNsIICsKYVU-52" value="" style="rounded=0;whiteSpace=wrap;html=1;fontFamily=Times New Roman;dashed=1;strokeColor=#FFFFFF;fillColor=#dae8fc;" vertex="1" parent="1">
          <mxGeometry x="60" y="380" width="480" height="400" as="geometry" />
        </mxCell>
        <mxCell id="iY4aOflEBfNsIICsKYVU-1" value="&lt;font face=&quot;Times New Roman&quot;&gt;RGB&amp;nbsp;&lt;br&gt;image&lt;br&gt;(128×128×3)&lt;/font&gt;" style="rounded=1;whiteSpace=wrap;html=1;fillColor=#f5f5f5;fontColor=#333333;strokeColor=#666666;" vertex="1" parent="1">
          <mxGeometry x="20" y="260" width="120" height="60" as="geometry" />
        </mxCell>
        <mxCell id="iY4aOflEBfNsIICsKYVU-2" value="" style="shape=arrow;endArrow=classic;html=1;rounded=0;exitX=1;exitY=0.5;exitDx=0;exitDy=0;fillColor=#f5f5f5;strokeColor=#666666;" edge="1" parent="1" source="iY4aOflEBfNsIICsKYVU-1">
          <mxGeometry width="50" height="50" relative="1" as="geometry">
            <mxPoint x="290" y="440" as="sourcePoint" />
            <mxPoint x="190" y="290" as="targetPoint" />
          </mxGeometry>
        </mxCell>
        <mxCell id="iY4aOflEBfNsIICsKYVU-5" style="edgeStyle=orthogonalEdgeStyle;shape=arrow;rounded=0;orthogonalLoop=1;jettySize=auto;html=1;exitX=1;exitY=0.5;exitDx=0;exitDy=0;fontFamily=Times New Roman;fillColor=#f5f5f5;strokeColor=#666666;" edge="1" parent="1" source="iY4aOflEBfNsIICsKYVU-3">
          <mxGeometry relative="1" as="geometry">
            <mxPoint x="370" y="290" as="targetPoint" />
          </mxGeometry>
        </mxCell>
        <mxCell id="iY4aOflEBfNsIICsKYVU-3" value="&lt;font face=&quot;Times New Roman&quot;&gt;Convolutional layer&lt;br&gt;No. filter: 32&lt;br&gt;Filter size: 5×5&lt;br&gt;Padding: valid&lt;br&gt;Stride: 1×1&lt;/font&gt;" style="rounded=1;whiteSpace=wrap;html=1;fillColor=#f5f5f5;fontColor=#333333;strokeColor=#666666;" vertex="1" parent="1">
          <mxGeometry x="190" y="230" width="130" height="120" as="geometry" />
        </mxCell>
        <mxCell id="iY4aOflEBfNsIICsKYVU-7" style="edgeStyle=orthogonalEdgeStyle;shape=arrow;rounded=0;orthogonalLoop=1;jettySize=auto;html=1;exitX=1;exitY=0.5;exitDx=0;exitDy=0;fontFamily=Times New Roman;fillColor=#f5f5f5;strokeColor=#666666;" edge="1" parent="1" source="iY4aOflEBfNsIICsKYVU-6" target="iY4aOflEBfNsIICsKYVU-8">
          <mxGeometry relative="1" as="geometry">
            <mxPoint x="510" y="290" as="targetPoint" />
          </mxGeometry>
        </mxCell>
        <mxCell id="iY4aOflEBfNsIICsKYVU-6" value="Module 1" style="rounded=1;whiteSpace=wrap;html=1;fontFamily=Times New Roman;fillColor=#dae8fc;strokeColor=#6c8ebf;" vertex="1" parent="1">
          <mxGeometry x="370" y="260" width="100" height="60" as="geometry" />
        </mxCell>
        <mxCell id="iY4aOflEBfNsIICsKYVU-9" style="edgeStyle=orthogonalEdgeStyle;shape=arrow;rounded=0;orthogonalLoop=1;jettySize=auto;html=1;exitX=1;exitY=0.5;exitDx=0;exitDy=0;fontFamily=Times New Roman;fillColor=#f5f5f5;strokeColor=#666666;" edge="1" parent="1" source="iY4aOflEBfNsIICsKYVU-8" target="iY4aOflEBfNsIICsKYVU-10">
          <mxGeometry relative="1" as="geometry">
            <mxPoint x="670" y="290" as="targetPoint" />
          </mxGeometry>
        </mxCell>
        <mxCell id="iY4aOflEBfNsIICsKYVU-8" value="Module 2" style="rounded=1;whiteSpace=wrap;html=1;fontFamily=Times New Roman;fillColor=#d5e8d4;strokeColor=#82b366;" vertex="1" parent="1">
          <mxGeometry x="520" y="260" width="100" height="60" as="geometry" />
        </mxCell>
        <mxCell id="iY4aOflEBfNsIICsKYVU-12" style="edgeStyle=orthogonalEdgeStyle;shape=arrow;rounded=0;orthogonalLoop=1;jettySize=auto;html=1;exitX=1;exitY=0.5;exitDx=0;exitDy=0;fontFamily=Times New Roman;fillColor=#f5f5f5;strokeColor=#666666;" edge="1" parent="1" source="iY4aOflEBfNsIICsKYVU-10" target="iY4aOflEBfNsIICsKYVU-13">
          <mxGeometry relative="1" as="geometry">
            <mxPoint x="860" y="290" as="targetPoint" />
            <Array as="points">
              <mxPoint x="830" y="290" />
              <mxPoint x="830" y="290" />
            </Array>
          </mxGeometry>
        </mxCell>
        <mxCell id="iY4aOflEBfNsIICsKYVU-10" value="Max-pooling&lt;br&gt;Pool size: 2×2&lt;br&gt;Padding: same&lt;br&gt;Stride: 2×2" style="rounded=1;whiteSpace=wrap;html=1;fontFamily=Times New Roman;fillColor=#f5f5f5;fontColor=#333333;strokeColor=#666666;" vertex="1" parent="1">
          <mxGeometry x="670" y="240" width="120" height="100" as="geometry" />
        </mxCell>
        <mxCell id="iY4aOflEBfNsIICsKYVU-15" style="edgeStyle=orthogonalEdgeStyle;shape=arrow;rounded=0;orthogonalLoop=1;jettySize=auto;html=1;exitX=1;exitY=0.5;exitDx=0;exitDy=0;fontFamily=Times New Roman;entryX=0;entryY=0.5;entryDx=0;entryDy=0;fillColor=#f5f5f5;strokeColor=#666666;" edge="1" parent="1" source="iY4aOflEBfNsIICsKYVU-13" target="iY4aOflEBfNsIICsKYVU-16">
          <mxGeometry relative="1" as="geometry">
            <mxPoint x="980" y="290" as="targetPoint" />
          </mxGeometry>
        </mxCell>
        <mxCell id="iY4aOflEBfNsIICsKYVU-13" value="FC&lt;br&gt;256" style="rounded=1;whiteSpace=wrap;html=1;fontFamily=Times New Roman;fillColor=#f5f5f5;fontColor=#333333;strokeColor=#666666;" vertex="1" parent="1">
          <mxGeometry x="840" y="260" width="80" height="60" as="geometry" />
        </mxCell>
        <mxCell id="iY4aOflEBfNsIICsKYVU-16" value="FC&lt;br&gt;2" style="rounded=1;whiteSpace=wrap;html=1;fontFamily=Times New Roman;fillColor=#f5f5f5;fontColor=#333333;strokeColor=#666666;" vertex="1" parent="1">
          <mxGeometry x="970" y="260" width="80" height="60" as="geometry" />
        </mxCell>
        <mxCell id="iY4aOflEBfNsIICsKYVU-17" value="Flatten" style="text;strokeColor=none;fillColor=none;align=left;verticalAlign=middle;spacingLeft=4;spacingRight=4;overflow=hidden;points=[[0,0.5],[1,0.5]];portConstraint=eastwest;rotatable=0;fontFamily=Times New Roman;" vertex="1" parent="1">
          <mxGeometry x="790" y="250" width="80" height="30" as="geometry" />
        </mxCell>
        <mxCell id="iY4aOflEBfNsIICsKYVU-19" value="Channel-wise&lt;br&gt;concatenation" style="rounded=1;whiteSpace=wrap;html=1;fontFamily=Times New Roman;fillColor=#f5f5f5;fontColor=#333333;strokeColor=#666666;" vertex="1" parent="1">
          <mxGeometry x="240" y="400" width="120" height="60" as="geometry" />
        </mxCell>
        <mxCell id="iY4aOflEBfNsIICsKYVU-20" value="" style="endArrow=classic;html=1;rounded=0;fontFamily=Times New Roman;entryX=0.5;entryY=1;entryDx=0;entryDy=0;" edge="1" parent="1" target="iY4aOflEBfNsIICsKYVU-19">
          <mxGeometry width="50" height="50" relative="1" as="geometry">
            <mxPoint x="300" y="500" as="sourcePoint" />
            <mxPoint x="370" y="490" as="targetPoint" />
          </mxGeometry>
        </mxCell>
        <mxCell id="iY4aOflEBfNsIICsKYVU-21" value="Convolution&lt;br&gt;Filter size: 3×3&lt;br&gt;No. filter: 64" style="rounded=1;whiteSpace=wrap;html=1;fontFamily=Times New Roman;fillColor=#f5f5f5;fontColor=#333333;strokeColor=#666666;" vertex="1" parent="1">
          <mxGeometry x="240" y="500" width="120" height="60" as="geometry" />
        </mxCell>
        <mxCell id="iY4aOflEBfNsIICsKYVU-23" style="rounded=0;orthogonalLoop=1;jettySize=auto;html=1;exitX=0.5;exitY=0;exitDx=0;exitDy=0;entryX=1;entryY=1;entryDx=0;entryDy=0;fontFamily=Times New Roman;" edge="1" parent="1" source="iY4aOflEBfNsIICsKYVU-22" target="iY4aOflEBfNsIICsKYVU-19">
          <mxGeometry relative="1" as="geometry" />
        </mxCell>
        <mxCell id="iY4aOflEBfNsIICsKYVU-22" value="Convolution&lt;br&gt;Filter size: 1×1&lt;br&gt;No. filter: 32" style="rounded=1;whiteSpace=wrap;html=1;fontFamily=Times New Roman;fillColor=#f5f5f5;fontColor=#333333;strokeColor=#666666;" vertex="1" parent="1">
          <mxGeometry x="410" y="500" width="120" height="60" as="geometry" />
        </mxCell>
        <mxCell id="iY4aOflEBfNsIICsKYVU-25" style="edgeStyle=none;rounded=0;orthogonalLoop=1;jettySize=auto;html=1;exitX=0.5;exitY=0;exitDx=0;exitDy=0;fontFamily=Times New Roman;" edge="1" parent="1" source="iY4aOflEBfNsIICsKYVU-24" target="iY4aOflEBfNsIICsKYVU-21">
          <mxGeometry relative="1" as="geometry" />
        </mxCell>
        <mxCell id="iY4aOflEBfNsIICsKYVU-24" value="Convolution&lt;br&gt;Filter size: 1×1&lt;br&gt;No. filter: 32" style="rounded=1;whiteSpace=wrap;html=1;fontFamily=Times New Roman;fillColor=#f5f5f5;fontColor=#333333;strokeColor=#666666;" vertex="1" parent="1">
          <mxGeometry x="240" y="590" width="120" height="60" as="geometry" />
        </mxCell>
        <mxCell id="iY4aOflEBfNsIICsKYVU-31" style="edgeStyle=none;rounded=0;orthogonalLoop=1;jettySize=auto;html=1;exitX=0.5;exitY=0;exitDx=0;exitDy=0;entryX=0.5;entryY=1;entryDx=0;entryDy=0;fontFamily=Times New Roman;" edge="1" parent="1" source="iY4aOflEBfNsIICsKYVU-26" target="iY4aOflEBfNsIICsKYVU-22">
          <mxGeometry relative="1" as="geometry" />
        </mxCell>
        <mxCell id="iY4aOflEBfNsIICsKYVU-26" value="Max-pooling&lt;br&gt;Filter size: 3×3" style="rounded=1;whiteSpace=wrap;html=1;fontFamily=Times New Roman;fillColor=#f5f5f5;fontColor=#333333;strokeColor=#666666;" vertex="1" parent="1">
          <mxGeometry x="410" y="600" width="120" height="60" as="geometry" />
        </mxCell>
        <mxCell id="iY4aOflEBfNsIICsKYVU-32" style="edgeStyle=none;rounded=0;orthogonalLoop=1;jettySize=auto;html=1;exitX=0.5;exitY=0;exitDx=0;exitDy=0;entryX=0;entryY=1;entryDx=0;entryDy=0;fontFamily=Times New Roman;" edge="1" parent="1" source="iY4aOflEBfNsIICsKYVU-27" target="iY4aOflEBfNsIICsKYVU-19">
          <mxGeometry relative="1" as="geometry" />
        </mxCell>
        <mxCell id="iY4aOflEBfNsIICsKYVU-27" value="Convolution&lt;br&gt;Filter size: 1×1&lt;br&gt;No. filter: 32" style="rounded=1;whiteSpace=wrap;html=1;fontFamily=Times New Roman;fillColor=#f5f5f5;fontColor=#333333;strokeColor=#666666;" vertex="1" parent="1">
          <mxGeometry x="70" y="560" width="120" height="60" as="geometry" />
        </mxCell>
        <mxCell id="iY4aOflEBfNsIICsKYVU-29" style="edgeStyle=none;rounded=0;orthogonalLoop=1;jettySize=auto;html=1;exitX=0.5;exitY=0;exitDx=0;exitDy=0;entryX=0.5;entryY=1;entryDx=0;entryDy=0;fontFamily=Times New Roman;" edge="1" parent="1" source="iY4aOflEBfNsIICsKYVU-28" target="iY4aOflEBfNsIICsKYVU-24">
          <mxGeometry relative="1" as="geometry" />
        </mxCell>
        <mxCell id="iY4aOflEBfNsIICsKYVU-30" style="edgeStyle=none;rounded=0;orthogonalLoop=1;jettySize=auto;html=1;exitX=0.5;exitY=0;exitDx=0;exitDy=0;entryX=0.5;entryY=1;entryDx=0;entryDy=0;fontFamily=Times New Roman;" edge="1" parent="1" source="iY4aOflEBfNsIICsKYVU-28" target="iY4aOflEBfNsIICsKYVU-26">
          <mxGeometry relative="1" as="geometry" />
        </mxCell>
        <mxCell id="iY4aOflEBfNsIICsKYVU-33" style="edgeStyle=none;rounded=0;orthogonalLoop=1;jettySize=auto;html=1;exitX=0.5;exitY=0;exitDx=0;exitDy=0;entryX=0.5;entryY=1;entryDx=0;entryDy=0;fontFamily=Times New Roman;" edge="1" parent="1" source="iY4aOflEBfNsIICsKYVU-28" target="iY4aOflEBfNsIICsKYVU-27">
          <mxGeometry relative="1" as="geometry" />
        </mxCell>
        <mxCell id="iY4aOflEBfNsIICsKYVU-28" value="Output of previous layer" style="rounded=1;whiteSpace=wrap;html=1;fontFamily=Times New Roman;fillColor=#f5f5f5;fontColor=#333333;strokeColor=#666666;" vertex="1" parent="1">
          <mxGeometry x="227.5" y="690" width="145" height="60" as="geometry" />
        </mxCell>
        <mxCell id="iY4aOflEBfNsIICsKYVU-34" value="Channel-wise&lt;br&gt;concatenation" style="rounded=1;whiteSpace=wrap;html=1;fontFamily=Times New Roman;fillColor=#f5f5f5;fontColor=#333333;strokeColor=#666666;" vertex="1" parent="1">
          <mxGeometry x="770" y="400" width="120" height="60" as="geometry" />
        </mxCell>
        <mxCell id="iY4aOflEBfNsIICsKYVU-35" value="" style="endArrow=classic;html=1;rounded=0;fontFamily=Times New Roman;entryX=0.5;entryY=1;entryDx=0;entryDy=0;" edge="1" parent="1" target="iY4aOflEBfNsIICsKYVU-34">
          <mxGeometry width="50" height="50" relative="1" as="geometry">
            <mxPoint x="830" y="500" as="sourcePoint" />
            <mxPoint x="900" y="490" as="targetPoint" />
          </mxGeometry>
        </mxCell>
        <mxCell id="iY4aOflEBfNsIICsKYVU-36" value="Convolution&lt;br&gt;Filter size: 3×3&lt;br&gt;No. filter: 128" style="rounded=1;whiteSpace=wrap;html=1;fontFamily=Times New Roman;fillColor=#f5f5f5;fontColor=#333333;strokeColor=#666666;" vertex="1" parent="1">
          <mxGeometry x="770" y="500" width="120" height="60" as="geometry" />
        </mxCell>
        <mxCell id="iY4aOflEBfNsIICsKYVU-37" style="rounded=0;orthogonalLoop=1;jettySize=auto;html=1;exitX=0.5;exitY=0;exitDx=0;exitDy=0;entryX=1;entryY=1;entryDx=0;entryDy=0;fontFamily=Times New Roman;" edge="1" parent="1" source="iY4aOflEBfNsIICsKYVU-38" target="iY4aOflEBfNsIICsKYVU-34">
          <mxGeometry relative="1" as="geometry" />
        </mxCell>
        <mxCell id="iY4aOflEBfNsIICsKYVU-38" value="Convolution&lt;br&gt;Filter size: 1×1&lt;br&gt;No. filter: 64" style="rounded=1;whiteSpace=wrap;html=1;fontFamily=Times New Roman;fillColor=#f5f5f5;fontColor=#333333;strokeColor=#666666;" vertex="1" parent="1">
          <mxGeometry x="940" y="500" width="120" height="60" as="geometry" />
        </mxCell>
        <mxCell id="iY4aOflEBfNsIICsKYVU-39" style="edgeStyle=none;rounded=0;orthogonalLoop=1;jettySize=auto;html=1;exitX=0.5;exitY=0;exitDx=0;exitDy=0;fontFamily=Times New Roman;" edge="1" parent="1" source="iY4aOflEBfNsIICsKYVU-40" target="iY4aOflEBfNsIICsKYVU-36">
          <mxGeometry relative="1" as="geometry" />
        </mxCell>
        <mxCell id="iY4aOflEBfNsIICsKYVU-40" value="Convolution&lt;br&gt;Filter size: 1×1&lt;br&gt;No. filter: 64" style="rounded=1;whiteSpace=wrap;html=1;fontFamily=Times New Roman;fillColor=#f5f5f5;fontColor=#333333;strokeColor=#666666;" vertex="1" parent="1">
          <mxGeometry x="770" y="590" width="120" height="60" as="geometry" />
        </mxCell>
        <mxCell id="iY4aOflEBfNsIICsKYVU-41" style="edgeStyle=none;rounded=0;orthogonalLoop=1;jettySize=auto;html=1;exitX=0.5;exitY=0;exitDx=0;exitDy=0;entryX=0.5;entryY=1;entryDx=0;entryDy=0;fontFamily=Times New Roman;" edge="1" parent="1" source="iY4aOflEBfNsIICsKYVU-42" target="iY4aOflEBfNsIICsKYVU-38">
          <mxGeometry relative="1" as="geometry" />
        </mxCell>
        <mxCell id="iY4aOflEBfNsIICsKYVU-42" value="Max-pooling&lt;br&gt;Filter size: 3×3" style="rounded=1;whiteSpace=wrap;html=1;fontFamily=Times New Roman;fillColor=#f5f5f5;fontColor=#333333;strokeColor=#666666;" vertex="1" parent="1">
          <mxGeometry x="940" y="600" width="120" height="60" as="geometry" />
        </mxCell>
        <mxCell id="iY4aOflEBfNsIICsKYVU-43" style="edgeStyle=none;rounded=0;orthogonalLoop=1;jettySize=auto;html=1;exitX=0.5;exitY=0;exitDx=0;exitDy=0;entryX=0;entryY=1;entryDx=0;entryDy=0;fontFamily=Times New Roman;" edge="1" parent="1" source="iY4aOflEBfNsIICsKYVU-44" target="iY4aOflEBfNsIICsKYVU-34">
          <mxGeometry relative="1" as="geometry" />
        </mxCell>
        <mxCell id="iY4aOflEBfNsIICsKYVU-44" value="Convolution&lt;br&gt;Filter size: 1×1&lt;br&gt;No. filter: 64" style="rounded=1;whiteSpace=wrap;html=1;fontFamily=Times New Roman;fillColor=#f5f5f5;fontColor=#333333;strokeColor=#666666;" vertex="1" parent="1">
          <mxGeometry x="600" y="560" width="120" height="60" as="geometry" />
        </mxCell>
        <mxCell id="iY4aOflEBfNsIICsKYVU-45" style="edgeStyle=none;rounded=0;orthogonalLoop=1;jettySize=auto;html=1;exitX=0.5;exitY=0;exitDx=0;exitDy=0;entryX=0.5;entryY=1;entryDx=0;entryDy=0;fontFamily=Times New Roman;" edge="1" parent="1" source="iY4aOflEBfNsIICsKYVU-48" target="iY4aOflEBfNsIICsKYVU-40">
          <mxGeometry relative="1" as="geometry" />
        </mxCell>
        <mxCell id="iY4aOflEBfNsIICsKYVU-46" style="edgeStyle=none;rounded=0;orthogonalLoop=1;jettySize=auto;html=1;exitX=0.5;exitY=0;exitDx=0;exitDy=0;entryX=0.5;entryY=1;entryDx=0;entryDy=0;fontFamily=Times New Roman;" edge="1" parent="1" source="iY4aOflEBfNsIICsKYVU-48" target="iY4aOflEBfNsIICsKYVU-42">
          <mxGeometry relative="1" as="geometry" />
        </mxCell>
        <mxCell id="iY4aOflEBfNsIICsKYVU-47" style="edgeStyle=none;rounded=0;orthogonalLoop=1;jettySize=auto;html=1;exitX=0.5;exitY=0;exitDx=0;exitDy=0;entryX=0.5;entryY=1;entryDx=0;entryDy=0;fontFamily=Times New Roman;" edge="1" parent="1" source="iY4aOflEBfNsIICsKYVU-48" target="iY4aOflEBfNsIICsKYVU-44">
          <mxGeometry relative="1" as="geometry" />
        </mxCell>
        <mxCell id="iY4aOflEBfNsIICsKYVU-48" value="Output of previous layer" style="rounded=1;whiteSpace=wrap;html=1;fontFamily=Times New Roman;fillColor=#f5f5f5;fontColor=#333333;strokeColor=#666666;" vertex="1" parent="1">
          <mxGeometry x="757.5" y="690" width="145" height="60" as="geometry" />
        </mxCell>
        <mxCell id="iY4aOflEBfNsIICsKYVU-55" value="" style="endArrow=none;dashed=1;html=1;dashPattern=1 3;strokeWidth=2;rounded=0;fontFamily=Times New Roman;exitX=0;exitY=0;exitDx=0;exitDy=0;entryX=0;entryY=0.5;entryDx=0;entryDy=0;fillColor=#dae8fc;strokeColor=#6c8ebf;" edge="1" parent="1" source="iY4aOflEBfNsIICsKYVU-52" target="iY4aOflEBfNsIICsKYVU-6">
          <mxGeometry width="50" height="50" relative="1" as="geometry">
            <mxPoint x="530" y="700" as="sourcePoint" />
            <mxPoint x="580" y="650" as="targetPoint" />
          </mxGeometry>
        </mxCell>
        <mxCell id="iY4aOflEBfNsIICsKYVU-56" value="" style="endArrow=none;dashed=1;html=1;dashPattern=1 3;strokeWidth=2;rounded=0;fontFamily=Times New Roman;exitX=1;exitY=0;exitDx=0;exitDy=0;entryX=1;entryY=0.5;entryDx=0;entryDy=0;fillColor=#dae8fc;strokeColor=#6c8ebf;" edge="1" parent="1" source="iY4aOflEBfNsIICsKYVU-52" target="iY4aOflEBfNsIICsKYVU-6">
          <mxGeometry width="50" height="50" relative="1" as="geometry">
            <mxPoint x="70" y="390" as="sourcePoint" />
            <mxPoint x="380" y="300" as="targetPoint" />
          </mxGeometry>
        </mxCell>
        <mxCell id="iY4aOflEBfNsIICsKYVU-57" value="" style="endArrow=none;dashed=1;html=1;dashPattern=1 3;strokeWidth=2;rounded=0;fontFamily=Times New Roman;exitX=0;exitY=0;exitDx=0;exitDy=0;entryX=0;entryY=0.5;entryDx=0;entryDy=0;fillColor=#d5e8d4;strokeColor=#82b366;" edge="1" parent="1" source="iY4aOflEBfNsIICsKYVU-54" target="iY4aOflEBfNsIICsKYVU-8">
          <mxGeometry width="50" height="50" relative="1" as="geometry">
            <mxPoint x="70" y="390" as="sourcePoint" />
            <mxPoint x="380" y="300" as="targetPoint" />
          </mxGeometry>
        </mxCell>
        <mxCell id="iY4aOflEBfNsIICsKYVU-58" value="" style="endArrow=none;dashed=1;html=1;dashPattern=1 3;strokeWidth=2;rounded=0;fontFamily=Times New Roman;exitX=1;exitY=0;exitDx=0;exitDy=0;entryX=1;entryY=0.5;entryDx=0;entryDy=0;fillColor=#d5e8d4;strokeColor=#82b366;" edge="1" parent="1" source="iY4aOflEBfNsIICsKYVU-54" target="iY4aOflEBfNsIICsKYVU-8">
          <mxGeometry width="50" height="50" relative="1" as="geometry">
            <mxPoint x="80" y="400" as="sourcePoint" />
            <mxPoint x="390" y="310" as="targetPoint" />
          </mxGeometry>
        </mxCell>
        <mxCell id="iY4aOflEBfNsIICsKYVU-59" value="" style="endArrow=none;dashed=1;html=1;dashPattern=1 3;strokeWidth=2;rounded=0;fontFamily=Times New Roman;entryX=1;entryY=0;entryDx=0;entryDy=0;exitX=1;exitY=1;exitDx=0;exitDy=0;fillColor=#dae8fc;strokeColor=#6c8ebf;" edge="1" parent="1" source="iY4aOflEBfNsIICsKYVU-52" target="iY4aOflEBfNsIICsKYVU-52">
          <mxGeometry width="50" height="50" relative="1" as="geometry">
            <mxPoint x="530" y="700" as="sourcePoint" />
            <mxPoint x="580" y="650" as="targetPoint" />
          </mxGeometry>
        </mxCell>
        <mxCell id="iY4aOflEBfNsIICsKYVU-60" value="" style="endArrow=none;dashed=1;html=1;dashPattern=1 3;strokeWidth=2;rounded=0;fontFamily=Times New Roman;entryX=1;entryY=0;entryDx=0;entryDy=0;exitX=1;exitY=1;exitDx=0;exitDy=0;fillColor=#dae8fc;strokeColor=#6c8ebf;" edge="1" parent="1">
          <mxGeometry width="50" height="50" relative="1" as="geometry">
            <mxPoint x="60" y="780" as="sourcePoint" />
            <mxPoint x="60" y="380" as="targetPoint" />
          </mxGeometry>
        </mxCell>
        <mxCell id="iY4aOflEBfNsIICsKYVU-61" value="" style="endArrow=none;dashed=1;html=1;dashPattern=1 3;strokeWidth=2;rounded=0;fontFamily=Times New Roman;entryX=1;entryY=0;entryDx=0;entryDy=0;exitX=1;exitY=1;exitDx=0;exitDy=0;fillColor=#d5e8d4;strokeColor=#82b366;" edge="1" parent="1">
          <mxGeometry width="50" height="50" relative="1" as="geometry">
            <mxPoint x="590" y="780" as="sourcePoint" />
            <mxPoint x="590" y="380" as="targetPoint" />
          </mxGeometry>
        </mxCell>
        <mxCell id="iY4aOflEBfNsIICsKYVU-62" value="" style="endArrow=none;dashed=1;html=1;dashPattern=1 3;strokeWidth=2;rounded=0;fontFamily=Times New Roman;entryX=1;entryY=0;entryDx=0;entryDy=0;exitX=1;exitY=1;exitDx=0;exitDy=0;fillColor=#d5e8d4;strokeColor=#82b366;" edge="1" parent="1">
          <mxGeometry width="50" height="50" relative="1" as="geometry">
            <mxPoint x="1070" y="780" as="sourcePoint" />
            <mxPoint x="1070" y="380" as="targetPoint" />
          </mxGeometry>
        </mxCell>
        <mxCell id="iY4aOflEBfNsIICsKYVU-63" value="" style="endArrow=none;dashed=1;html=1;dashPattern=1 3;strokeWidth=2;rounded=0;fontFamily=Times New Roman;entryX=1;entryY=1;entryDx=0;entryDy=0;fillColor=#d5e8d4;strokeColor=#82b366;" edge="1" parent="1" target="iY4aOflEBfNsIICsKYVU-54">
          <mxGeometry width="50" height="50" relative="1" as="geometry">
            <mxPoint x="590" y="780" as="sourcePoint" />
            <mxPoint x="580" y="420" as="targetPoint" />
          </mxGeometry>
        </mxCell>
        <mxCell id="iY4aOflEBfNsIICsKYVU-64" value="" style="endArrow=none;dashed=1;html=1;dashPattern=1 3;strokeWidth=2;rounded=0;fontFamily=Times New Roman;entryX=1;entryY=1;entryDx=0;entryDy=0;fillColor=#dae8fc;strokeColor=#6c8ebf;" edge="1" parent="1">
          <mxGeometry width="50" height="50" relative="1" as="geometry">
            <mxPoint x="60" y="780" as="sourcePoint" />
            <mxPoint x="540" y="780" as="targetPoint" />
          </mxGeometry>
        </mxCell>
      </root>
    </mxGraphModel>
  </diagram>
</mxfile>
